<svg width="97" height="66" viewBox="0 0 97 66" fill="none" xmlns="http://www.w3.org/2000/svg">
<path d="M23.3889 12.0202C30.4302 13.4285 33.5907 20.0139 41.3745 20.0139C50.0635 20.0139 38.1342 15.6937 35.3793 14.3887C31.7198 12.6553 27.6856 8.77094 24.7952 6.02502C24.22 5.47862 17.7607 -0.98378 21.3905 1.43608C25.0283 3.86133 26.839 7.05124 31.3085 8.61555C35.0519 9.92573 38.6549 9.81868 41.4486 12.6124C42.1604 13.3242 47.5499 14.3818 43.0769 13.0565C38.0538 11.5681 33.0316 9.61903 27.9778 8.31949C26.3263 7.89482 21.1656 8.02343 22.8708 8.02343C27.3746 8.02343 31.5141 8.99412 35.9714 9.28168C47.1237 10.0012 41.2118 12.0202 34.0471 12.0202C30.9384 12.0202 27.8298 12.0202 24.7211 12.0202C24.1093 12.0202 31.9677 12.0202 34.0471 12.0202C37.7971 12.0202 41.5472 12.0202 45.2973 12.0202C46.3567 12.0202 53.0193 12.0202 49.2942 12.0202C44.2118 12.0202 28.9647 12.0202 34.0471 12.0202C39.8034 12.0202 46.4546 12.3989 52.1067 13.4265C59.625 14.7935 58.0279 22.3817 58.0279 28.0075C58.0279 38.1949 48.2509 18.4145 47.6658 14.6848C47.5475 13.9302 47.113 3.87948 48.0359 4.24866C50.3452 5.17237 51.1829 12.0121 51.4406 13.9446C51.7079 15.9494 56.455 29.4824 54.0311 29.3398C47.9724 28.9834 49.2815 5.55378 50.0343 11.5762C50.8163 17.832 60.9032 34.2086 57.2878 29.0437C54.328 24.8154 51.5668 19.2095 49.7383 14.3887C48.7022 11.6573 47.3698 3.02972 47.3698 5.951C47.3698 9.30636 47.3698 12.6617 47.3698 16.0171C47.3698 20.9474 50.4599 24.0199 51.2926 28.5996C52.2306 33.7586 47.7775 25.1993 47.3698 24.7508C45.2597 22.4298 44.7052 17.142 44.7052 14.0187C44.7052 5.31371 59.4202 20.6103 51.0705 20.0139C46.0966 19.6586 41.6356 15.779 36.7116 14.6848C31.139 13.4464 31.6993 10.2661 36.6376 13.3525C39.3784 15.0655 41.4827 14.6848 37.0077 14.6848C34.2444 14.6848 31.4812 14.6848 28.718 14.6848C26.0699 14.6848 23.3687 14.5292 20.7243 14.6848C17.2553 14.8888 21.0629 17.3493 23.0928 17.3493C26.0744 17.3493 42.3263 16.5535 35.9714 11.3541C28.8778 5.55019 20.7243 9.31884 20.7243 17.6454C20.7243 22.1448 22.3591 32.1588 25.5353 35.335C31.6314 41.4311 31.3825 26.0976 31.3825 23.5666C31.3825 18.3035 29.9433 14.4837 24.129 13.4265C16.0602 11.9595 23.7984 52.7641 30.7164 27.8595C33.3551 18.3601 22.2046 16.498 25.0172 25.639C27.6087 34.0614 36.6037 30.2336 30.0502 23.2705C22.5657 15.3182 25.2182 25.514 22.7227 30.0059C20.483 34.0374 16.936 15.3548 19.6881 12.9084C20.1069 12.5362 32.0901 32.4786 24.055 18.0155C20.4631 11.55 26.9004 25.343 21.3905 25.343C18.787 25.343 18.0598 36.2324 18.0598 38.9617C18.0598 41.547 19.3921 54.9047 19.3921 49.916C19.3921 49.079 18.5933 29.1331 20.4283 30.9681C23.2714 33.8112 20.7243 49.5808 20.7243 53.3207C20.7243 61.0246 26.0534 47.6947 26.0534 44.5869C26.0534 31.9732 13.48 51.1357 14.6551 51.6923C19.0272 53.7633 33.2233 43.4444 37.9698 42.0704C41.4485 41.0634 45.2397 40.5218 48.406 38.6657C49.2165 38.1906 51.4934 37.1273 51.1445 37.9995C50.3251 40.0481 41.3554 44.7621 39.2281 45.253C32.0688 46.9052 23.7858 47.9916 16.4315 47.9916C14.1056 47.9916 22.6541 44.7284 24.4251 43.6987C26.6747 42.3908 34.4958 41.3302 30.6424 41.3302C27.4592 41.3302 23.2063 40.5259 20.1322 41.4042C17.6093 42.1251 22.1644 46.6593 24.129 46.6593C30.6719 46.6593 27.8462 45.6724 25.3133 41.3302C22.6567 36.7762 19.4356 32.0479 15.6913 28.3036C8.03792 20.6502 7.52584 32.3434 11.9905 37.3334C15.6112 41.3801 30.8511 42.6625 20.7983 42.6625C18.4738 42.6625 4.7678 42.6625 11.6945 42.6625C21.1191 42.6625 30.5437 42.6625 39.9683 42.6625C43.8755 42.6625 60.661 45.3991 64.6153 41.7743C76.4397 30.9353 18.8485 10.6684 9.47403 12.1683C0.891917 13.5414 1.76589 25.267 6.80949 30.228C12.5294 35.8541 21.5541 43.2352 29.3841 45.8451C30.0967 46.0827 40.4123 47.8994 40.4123 45.7711C40.4123 38.4289 21.0572 30.9223 18.3558 39.7019C17.3869 42.851 19.7401 48.9901 17.4677 51.3963C15.0893 53.9145 12.6942 49.9525 14.6551 47.9916C18.9832 43.6635 31.2598 45.1737 36.4895 45.4011C42.4446 45.66 60.2878 46.6593 54.3272 46.6593C40.3055 46.6593 26.0836 38.9054 13.3228 33.9287C11.0647 33.048 1.04336 27.8807 0.74025 33.3366C0.45431 38.4835 8.08476 44.1483 10.0662 49.1018C10.9923 51.4172 16.0896 56.6576 18.7259 57.2435C24.4028 58.505 19.8361 45.6601 19.318 43.3286C18.5098 39.6913 15.3952 21.9365 15.3952 32.3004C15.3952 36.1985 15.3952 40.0966 15.3952 43.9948C15.3952 44.7648 15.3952 52.1664 15.3952 48.2876C15.3952 45.047 16.9721 34.4533 22.6487 36.0752C24.7369 36.6718 27.972 42.365 29.2361 43.9208C31.7142 46.9708 33.7479 49.6054 36.1195 52.6545C41.3638 59.3972 30.9319 57.4937 26.3495 57.3175C20.7105 57.1006 28.2571 54.89 30.0502 54.727C35.938 54.1917 42.0501 54.6529 47.9619 54.6529C50.7263 54.6529 54.6676 53.2814 50.4784 51.3963C43.8816 48.4277 39.3914 47.9916 31.9746 47.9916C21.9104 47.9916 24.8828 50.6561 33.4549 50.6561C38.7347 50.6561 44.0144 50.6561 49.2942 50.6561C57.6017 50.6561 52.3733 49.7731 48.0359 51.4703C44.5803 52.8225 43.1426 54.6529 39.3761 54.6529C33.0861 54.6529 39.0454 53.555 42.4848 52.5805C47.3304 51.2076 52.1264 50.6561 57.1398 50.6561C59.9523 50.6561 51.5146 50.6561 48.702 50.6561C39.9297 50.6561 31.2491 49.3239 22.6487 49.3239C7.88416 49.3239 51.9972 45.327 66.7617 45.327C75.6472 45.327 57.0224 46.1203 53.9571 46.7333C44.1697 48.6908 35.4081 49.3239 25.3133 49.3239C19.3754 49.3239 37.3062 49.2572 43.0769 50.6561C44.8595 51.0883 63.0003 54.1327 53.1429 55.6892C49.1714 56.3162 43.3293 56.6028 39.4502 55.2451C35.8821 53.9963 24.4936 53.3207 28.2739 53.3207C32.3278 53.3207 36.1071 52.0968 40.1163 51.9884C47.2882 51.7946 43.5742 53.1876 38.784 53.3207C35.5291 53.4111 20.3393 53.669 22.1306 47.3995C23.6024 42.2481 41.2458 50.4074 35.9714 51.9144C31.3207 53.2432 24.6275 58.4609 19.3921 55.6892C14.7939 53.2548 21.5211 51.9884 23.2408 51.9884C29.6555 51.9884 36.0701 51.9884 42.4848 51.9884C48.4489 51.9884 67.5913 54.2343 67.3539 44.7349C67.0288 31.7334 59.8908 25.2814 51.9587 17.3493C49.7622 15.1528 51.3666 17.8923 51.3666 21.3461C51.3666 24.4726 51.7338 30.0649 53.439 32.7445C56.0671 36.8743 59.3602 44.8702 59.3602 49.6199C59.3602 53.3282 59.3602 42.9572 59.3602 41.4042C59.3602 38.1443 60.1599 33.6777 58.6941 30.7461C57.6288 28.6155 59.1167 25.343 56.0295 25.343C52.4605 25.343 51.3666 25.1762 51.3666 29.2658C51.3666 34.4689 50.01 41.8736 52.4028 46.6593C58.5235 58.9007 56.247 31.4514 58.0279 27.7114C59.9125 23.7539 59.4299 32.8919 59.3602 34.0767C59.2482 35.9816 56.6704 39.4206 55.6595 41.3302C52.8141 46.7048 48.5593 34.1561 55.3634 30.376C62.6883 26.3066 58.5051 35.1152 54.6232 37.3334C53.7775 37.8167 49.8142 42.3626 51.6626 38.6657C52.4623 37.0665 57.9246 32.0664 59.3602 31.2642C60.9491 30.3763 62.8238 30.328 64.3932 29.3398C64.5849 29.2191 67.2058 27.0561 67.2058 27.4154C67.2058 27.6138 59.964 36.4214 59.3602 37.1114C57.6427 39.0743 56.085 41.7328 53.9571 43.3286C49.0923 46.9772 56.4387 40.844 57.3618 39.8499C59.9886 37.021 63.6107 34.7861 66.0216 32.0043C66.3059 31.6763 56.7391 35.5296 54.7713 36.5933C53.2034 37.4408 48.1015 40.8938 48.7761 43.2546C49.5266 45.8815 56.9274 41.2143 58.0279 40.6641C66.8894 36.2334 66.9298 44.24 62.0248 43.9948C52.5213 43.5196 57.7037 33.4032 61.7287 45.031C62.7075 47.8585 62.9894 49.7193 61.1366 45.8451C58.4276 40.1809 55.4049 34.1212 52.1808 28.7477C50.3239 25.6529 51.8724 21.3492 51.0705 17.9415C50.4284 15.2124 45.3862 11.966 42.6328 13.6486C34.1372 18.8403 64.3118 50.9571 66.6877 54.6529C71.1509 61.5958 64.372 50.5653 62.6169 48.5837C58.1147 43.5006 53.8212 38.1231 48.702 33.6327C45.5842 30.8977 48.987 34.9464 49.5162 35.557C54.6187 41.4445 60.0988 50.7058 61.7287 58.3537C62.0405 59.8169 64.8584 70.1421 62.3208 63.6828C59.272 55.9221 52.3332 49.5391 46.0375 44.1428C44.0371 42.4282 34.7133 38.3691 34.1211 43.4026C33.4717 48.9221 36.04 54.6529 28.4219 54.6529C25.697 54.6529 9.70754 54.6529 18.0598 54.6529C26.5495 54.6529 51.5497 56.9108 43.2249 58.5757C35.7756 60.0656 20.6522 56.7975 29.4581 47.9916C35.1713 42.2784 40.7398 36.7951 47.5918 32.3744C57.6782 25.8671 35.938 20.4953 31.6046 20.1619C24.0551 19.5812 16.2787 19.7024 8.88191 21.3461C6.75784 21.8182 2.17968 25.8873 6.51343 26.6752C17.3984 28.6543 27.6589 30.6721 38.784 30.6721C41.2288 30.6721 49.725 32.199 51.0705 29.3398C53.8714 23.3879 27.9511 22.6784 24.055 22.6784C20.6028 22.6784 17.2775 23.5596 22.3527 26.3792C28.6598 29.8831 39.2638 29.1584 46.0375 30.228C57.1109 31.9764 68.4225 35.3893 79.6404 36.0011C81.9153 36.1252 92.7225 36.1769 83.9332 36.0011C61.0637 35.5438 37.9174 31.2865 15.2472 28.3036C6.17452 27.1098 10.0649 25.0134 17.4677 25.491C44.2099 27.2163 67.8032 33.4373 90.3726 48.0656C97.346 52.5854 99.3578 56.8826 87.93 55.097C73.7051 52.8744 58.4605 48.7014 46.0375 41.1822C42.3231 38.934 48.6782 37.9495 50.4784 37.6295C58.4646 36.2097 67.5611 53.4699 53.365 51.7664C43.0209 50.5251 18.6476 42.7183 15.6913 30.1539C13.9214 22.6319 48.2411 21.2348 51.3666 21.5682C55.2107 21.9782 66.3182 23.1113 66.0216 29.3398C65.504 40.2087 45.2129 40.1693 38.636 40.7381C33.043 41.2218 25.212 42.3408 19.9842 39.4058C17.3824 37.9452 16.9272 36.3718 19.4661 35.261C24.997 32.8412 30.4417 32.7849 36.0455 35.483C39.4987 37.1457 45.8713 40.7098 46.0375 45.031C46.3248 52.4998 22.8048 42.1789 19.3921 39.7019C13.1524 35.1731 15.5827 30.8486 22.2046 28.5996C29.5673 26.0991 41.0467 28.2364 48.1099 30.6721C53.9597 32.6892 58.9693 37.453 61.2106 43.1806C62.7217 47.0423 59.1677 47.626 55.8075 47.3995C48.5573 46.9107 45.919 41.1614 46.2595 34.5208C46.868 22.6567 78.2509 28.7161 84.3033 30.0059C86.7117 30.5192 98.4187 36.1734 93.1111 40.5161C88.8411 44.0097 77.3018 34.2613 74.6073 30.9681C71.5166 27.1905 70.0184 23.4576 70.0184 18.6816C70.0184 17.0033 69.9138 21.877 70.3145 22.6784C71.4573 24.9641 73.5417 27.534 75.3475 29.3398" stroke="#1C202B" stroke-width="3" stroke-linecap="round"/>
</svg>
