<svg width="97" height="66" viewBox="0 0 97 66" fill="none" xmlns="http://www.w3.org/2000/svg">
<path d="M73.6116 53.9796C66.5703 52.5714 63.4098 45.986 55.6259 45.986C46.937 45.986 58.8663 50.3062 61.6212 51.6112C65.2806 53.3446 69.3149 57.2289 72.2053 59.9749C72.7805 60.5213 79.2398 66.9837 75.61 64.5638C71.9722 62.1385 70.1615 58.9486 65.692 57.3843C61.9486 56.0741 58.3456 56.1812 55.5519 53.3875C54.84 52.6756 49.4506 51.6181 53.9236 52.9434C58.9467 54.4317 63.9689 56.3808 69.0227 57.6804C70.6742 58.1051 75.8349 57.9765 74.1297 57.9765C69.6259 57.9765 65.4863 57.0058 61.029 56.7182C49.8768 55.9987 55.7887 53.9796 62.9534 53.9796C66.0621 53.9796 69.1707 53.9796 72.2793 53.9796C72.8911 53.9796 65.0327 53.9796 62.9534 53.9796C59.2033 53.9796 55.4532 53.9796 51.7031 53.9796C50.6438 53.9796 43.9812 53.9796 47.7063 53.9796C52.7887 53.9796 68.0358 53.9796 62.9534 53.9796C57.1971 53.9796 50.5458 53.601 44.8938 52.5733C37.3755 51.2064 38.9725 43.6182 38.9725 37.9924C38.9725 27.805 48.7496 47.5854 49.3347 51.3151C49.453 52.0697 49.8875 62.1204 48.9646 61.7512C46.6553 60.8275 45.8176 53.9877 45.5599 52.0552C45.2926 50.0505 40.5455 36.5175 42.9694 36.6601C49.0281 37.0165 47.719 60.4461 46.9662 54.4237C46.1842 48.1678 36.0973 31.7913 39.7127 36.9562C42.6725 41.1845 45.4337 46.7903 47.2622 51.6112C48.2983 54.3425 49.6307 62.9702 49.6307 60.0489C49.6307 56.6935 49.6307 53.3382 49.6307 49.9828C49.6307 45.0524 46.5406 41.98 45.7079 37.4002C44.7699 32.2413 49.223 40.8006 49.6307 41.249C51.7408 43.5701 52.2953 48.8578 52.2953 51.9812C52.2953 60.6862 37.5803 45.3896 45.93 45.986C50.9039 46.3413 55.3649 50.2209 60.2889 51.3151C65.8615 52.5535 65.3012 55.7338 60.3629 52.6474C57.6221 50.9344 55.5177 51.3151 59.9928 51.3151C62.7561 51.3151 65.5193 51.3151 68.2825 51.3151C70.9306 51.3151 73.6318 51.4706 76.2762 51.3151C79.7452 51.111 75.9376 48.6505 73.9077 48.6505C70.9261 48.6505 54.6742 49.4464 61.029 54.6458C68.1227 60.4497 76.2762 56.681 76.2762 48.3545C76.2762 43.8551 74.6414 33.8411 71.4652 30.6649C65.3691 24.5688 65.618 39.9023 65.618 42.4333C65.618 47.6964 67.0572 51.5162 72.8715 52.5733C80.9402 54.0404 73.2021 13.2358 66.2841 38.1404C63.6454 47.6398 74.7959 49.5018 71.9833 40.3609C69.3918 31.9385 60.3968 35.7662 66.9503 42.7293C74.4348 50.6817 71.7823 40.4858 74.2778 35.994C76.5175 31.9625 80.0645 50.6451 77.3124 53.0915C76.8936 53.4637 64.9104 33.5213 72.9455 47.9844C76.5374 54.4499 70.1001 40.6569 75.61 40.6569C78.2135 40.6569 78.9407 29.7675 78.9407 27.0381C78.9407 24.4529 77.6084 11.0952 77.6084 16.0839C77.6084 16.9208 78.4072 36.8668 76.5722 35.0318C73.7291 32.1887 76.2762 16.4191 76.2762 12.6792C76.2762 4.97528 70.9471 18.3052 70.9471 21.413C70.9471 34.0267 83.5205 14.8642 82.3454 14.3075C77.9733 12.2365 63.7772 22.5555 59.0306 23.9295C55.5519 24.9365 51.7608 25.4781 48.5945 27.3342C47.784 27.8093 45.507 28.8726 45.8559 28.0003C46.6754 25.9517 55.6451 21.2378 57.7724 20.7468C64.9317 19.0947 73.2147 18.0083 80.569 18.0083C82.8949 18.0083 74.3464 21.2715 72.5754 22.3012C70.3258 23.6091 62.5047 24.6697 66.3581 24.6697C69.5413 24.6697 73.7942 25.4739 76.8683 24.5956C79.3912 23.8748 74.8361 19.3406 72.8715 19.3406C66.3286 19.3406 69.1543 20.3275 71.6872 24.6697C74.3438 29.2237 77.5648 33.952 81.3092 37.6963C88.9626 45.3497 89.4747 33.6564 85.0099 28.6665C81.3892 24.6198 66.1494 23.3374 76.2021 23.3374C78.5267 23.3374 92.2327 23.3374 85.306 23.3374C75.8814 23.3374 66.4568 23.3374 57.0322 23.3374C53.1249 23.3374 36.3395 20.6008 32.3852 24.2256C20.5608 35.0646 78.1519 55.3315 87.5265 53.8316C96.1086 52.4585 95.2346 40.7328 90.191 35.7719C84.4711 30.1458 75.4464 22.7647 67.6164 20.1547C66.9038 19.9172 56.5881 18.1005 56.5881 20.2287C56.5881 27.571 75.9432 35.0775 78.6446 26.298C79.6136 23.1489 77.2604 17.0097 79.5328 14.6036C81.9112 12.0853 84.3063 16.0474 82.3454 18.0083C78.0173 22.3364 65.7407 20.8262 60.5109 20.5988C54.5559 20.3399 36.7126 19.3406 42.6733 19.3406C56.695 19.3406 70.9169 27.0945 83.6777 32.0712C85.9358 32.9518 95.9571 38.1192 96.2602 32.6633C96.5462 27.5164 88.9157 21.8516 86.9343 16.8981C86.0082 14.5827 80.9109 9.34224 78.2746 8.7564C72.5977 7.49488 77.1643 20.3398 77.6824 22.6712C78.4907 26.3086 81.6052 44.0634 81.6052 33.6995C81.6052 29.8014 81.6052 25.9032 81.6052 22.0051C81.6052 21.2351 81.6052 13.8335 81.6052 17.7122C81.6052 20.9529 80.0283 31.5466 74.3518 29.9247C72.2636 29.3281 69.0284 23.6348 67.7644 22.0791C65.2863 19.0291 63.2525 16.3945 60.881 13.3453C55.6367 6.60267 66.0686 8.50614 70.651 8.68239C76.29 8.89927 68.7434 11.1099 66.9503 11.2729C61.0625 11.8082 54.9504 11.3469 49.0386 11.3469C46.2742 11.3469 42.3329 12.7185 46.5221 14.6036C53.1189 17.5722 57.6091 18.0083 65.0259 18.0083C75.0901 18.0083 72.1177 15.3437 63.5456 15.3437C58.2658 15.3437 52.9861 15.3437 47.7063 15.3437C39.3988 15.3437 44.6272 16.2268 48.9646 14.5296C52.4201 13.1774 53.8579 11.3469 57.6244 11.3469C63.9144 11.3469 57.9551 12.4449 54.5157 13.4194C49.67 14.7923 44.8741 15.3437 39.8607 15.3437C37.0482 15.3437 45.4859 15.3437 48.2984 15.3437C57.0708 15.3437 65.7514 16.676 74.3518 16.676C89.1163 16.676 45.0033 20.6728 30.2388 20.6728C21.3533 20.6728 39.9781 19.8796 43.0434 19.2665C52.8308 17.3091 61.5924 16.676 71.6872 16.676C77.6251 16.676 59.6943 16.7427 53.9236 15.3437C52.141 14.9116 34.0002 11.8671 43.8575 10.3107C47.8291 9.68363 53.6711 9.3971 57.5503 10.7548C61.1184 12.0036 72.5069 12.6792 68.7266 12.6792C64.6726 12.6792 60.8934 13.9031 56.8842 14.0115C49.7122 14.2053 53.4263 12.8123 58.2165 12.6792C61.4714 12.5888 76.6612 12.3308 74.8699 18.6004C73.398 23.7518 55.7546 15.5925 61.029 14.0855C65.6798 12.7567 72.373 7.53902 77.6084 10.3107C82.2066 12.7451 75.4794 14.0115 73.7596 14.0115C67.345 14.0115 60.9304 14.0115 54.5157 14.0115C48.5516 14.0115 29.4092 11.7656 29.6466 21.265C29.9717 34.2665 37.1097 40.7184 45.0418 48.6505C47.2383 50.8471 45.6339 48.1076 45.6339 44.6537C45.6339 41.5273 45.2666 35.9349 43.5615 33.2554C40.9334 29.1256 37.6403 21.1297 37.6403 16.38C37.6403 12.6717 37.6403 23.0427 37.6403 24.5956C37.6403 27.8556 36.8406 32.3221 38.3064 35.2538C39.3717 37.3844 37.8838 40.6569 40.971 40.6569C44.54 40.6569 45.6339 40.8237 45.6339 36.7341C45.6339 31.531 46.9905 24.1262 44.5977 19.3406C38.477 7.09915 40.7535 34.5485 38.9725 38.2884C37.088 42.246 37.5706 33.1079 37.6403 31.9231C37.7523 30.0183 40.3301 26.5792 41.341 24.6697C44.1864 19.2951 48.4412 31.8438 41.6371 35.6239C34.3122 39.6933 38.4954 30.8846 42.3772 28.6665C43.223 28.1832 47.1863 23.6373 45.3378 27.3342C44.5382 28.9334 39.0759 33.9334 37.6403 34.7357C36.0514 35.6236 34.1767 35.6719 32.6072 36.6601C32.4156 36.7808 29.7947 38.9438 29.7947 38.5845C29.7947 38.3861 37.0365 29.5785 37.6403 28.8885C39.3578 26.9256 40.9155 24.2671 43.0434 22.6712C47.9082 19.0227 40.5618 25.1558 39.6387 26.15C37.0118 28.9789 33.3898 31.2137 30.9789 33.9956C30.6946 34.3236 40.2614 30.4703 42.2292 29.4066C43.7971 28.5591 48.899 25.1061 48.2244 22.7453C47.4739 20.1184 40.073 24.7855 38.9725 25.3358C30.1111 29.7665 30.0707 21.7599 34.9757 22.0051C44.4792 22.4803 39.2968 32.5967 35.2718 20.9689C34.293 18.1414 34.0111 16.2806 35.8639 20.1547C38.5729 25.819 41.5956 31.8787 44.8197 37.2522C46.6766 40.347 45.1281 44.6506 45.93 48.0584C46.5721 50.7875 51.6143 54.0339 54.3677 52.3513C62.8633 47.1595 32.6887 15.0428 30.3128 11.3469C25.8495 4.40412 32.6285 15.4346 34.3836 17.4162C38.8858 22.4993 43.1793 27.8767 48.2984 32.3672C51.4163 35.1022 48.0135 31.0535 47.4843 30.4428C42.3818 24.5554 36.9017 15.294 35.2718 7.64618C34.96 6.183 32.1421 -4.14223 34.6797 2.31709C37.7285 10.0778 44.6673 16.4608 50.963 21.8571C52.9634 23.5717 62.2872 27.6308 62.8794 22.5972C63.5288 17.0777 60.9605 11.3469 68.5786 11.3469C71.3035 11.3469 87.2929 11.3469 78.9407 11.3469C70.451 11.3469 45.4507 9.08909 53.7756 7.42413C61.2249 5.93426 76.3483 9.20239 67.5424 18.0083C61.8292 23.7215 56.2607 29.2048 49.4087 33.6255C39.3223 40.1328 61.0624 45.5046 65.3959 45.838C72.9454 46.4187 80.7218 46.2975 88.1186 44.6537C90.2426 44.1817 94.8208 40.1126 90.4871 39.3246C79.6021 37.3456 69.3416 35.3278 58.2165 35.3278C55.7717 35.3278 47.2755 33.8009 45.93 36.6601C43.1291 42.6119 69.0494 43.3215 72.9455 43.3215C76.3977 43.3215 79.723 42.4402 74.6478 39.6207C68.3407 36.1167 57.7367 36.8414 50.963 35.7719C39.8896 34.0235 28.5779 30.6106 17.3601 29.9987C15.0852 29.8747 4.27796 29.823 13.0673 29.9987C35.9368 30.4561 59.0831 34.7134 81.7533 37.6963C90.826 38.8901 86.9356 40.9865 79.5328 40.5089C52.7906 38.7836 29.1973 32.5626 6.62794 17.9343C-0.345462 13.4145 -2.35734 9.11725 9.07044 10.9028C23.2954 13.1255 38.54 17.2985 50.963 24.8177C54.6774 27.0658 48.3223 28.0504 46.5221 28.3704C38.5359 29.7902 29.4394 12.53 43.6355 14.2335C53.9796 15.4748 78.3529 23.2816 81.3092 35.8459C83.0791 43.3679 48.7594 44.7651 45.6339 44.4317C41.7898 44.0216 30.6823 42.8886 30.9789 36.6601C31.4965 25.7912 51.7876 25.8306 58.3645 25.2618C63.9575 24.7781 71.7885 23.6591 77.0163 26.594C79.6181 28.0547 80.0733 29.6281 77.5344 30.7389C72.0034 33.1587 66.5588 33.215 60.955 30.5168C57.5018 28.8542 51.1292 25.2901 50.963 20.9689C50.6757 13.5001 74.1956 23.821 77.6084 26.298C83.8481 30.8268 81.4178 35.1513 74.7959 37.4002C67.4332 39.9008 55.9538 37.7634 48.8906 35.3278C43.0408 33.3107 38.0311 28.5469 35.7899 22.8193C34.2788 18.9576 37.8328 18.3739 41.193 18.6004C48.4432 19.0892 51.0815 24.8385 50.7409 31.479C50.1325 43.3432 18.7496 37.2838 12.6972 35.994C10.2888 35.4807 -1.41826 29.8264 3.88938 25.4838C8.15942 21.9901 19.6987 31.7385 22.3932 35.0318C25.4839 38.8093 26.9821 42.5423 26.9821 47.3183C26.9821 48.9966 27.0867 44.1229 26.686 43.3215C25.5432 41.0358 23.4587 38.4658 21.653 36.6601" stroke="#1C202B" stroke-width="3" stroke-linecap="round"/>
</svg>
